<svg xmlns="http://www.w3.org/2000/svg" width="149" height="39" fill="none"><path fill="#40464D" fill-rule="evenodd" d="M20.07 37.528c7.898 0 14.902-5.216 17.137-12.815-6.216 1.036-12.917-1.54-17.136-6.11-4.22 4.57-10.92 7.146-17.137 6.11 2.385 7.748 9.24 12.815 17.137 12.815zm17.882-16.54c0-8.354-4.442-16.015-12.815-18.478.769 4.614-.557 9.645-2.98 13.56 4.006 4.197 10.104 6.34 15.795 4.918zm-20.117-5.067c-2.483-3.82-3.738-8.859-2.98-13.411C6.55 5.001 2.19 12.705 2.19 20.988c5.665 1.416 11.828-.675 15.646-5.067zm2.235-3.129c1.193-2.235 1.789-4.769 1.789-7.45 0-1.193-.15-2.385-.447-3.577H18.73a14.698 14.698 0 0 0-.448 3.576c0 2.682.745 5.216 1.789 7.45z" clip-rule="evenodd"/><g clip-path="url(#a)"><path fill="#40464D" d="M50.505 17.752c0-1.07.275-2.014.827-2.834.552-.819 1.313-1.454 2.282-1.906.987-.468 2.124-.702 3.411-.702 1.237 0 2.307.217 3.21.652.92.435 1.63 1.053 2.132 1.856.518.803.794 1.755.828 2.859h-3.21c-.034-.786-.318-1.396-.853-1.83-.535-.452-1.254-.678-2.157-.678-.986 0-1.78.226-2.383.677-.585.435-.877 1.037-.877 1.806 0 .652.175 1.17.526 1.555.368.368.937.643 1.706.827l2.884.652c1.571.335 2.742.912 3.51 1.73.77.803 1.154 1.89 1.154 3.261 0 1.12-.276 2.107-.827 2.96-.552.852-1.338 1.512-2.358 1.98-1.003.452-2.181.678-3.536.678-1.287 0-2.416-.218-3.385-.652-.97-.452-1.73-1.079-2.283-1.881-.535-.803-.819-1.747-.852-2.834h3.21c.017.769.318 1.38.903 1.83.602.435 1.413.653 2.432.653 1.07 0 1.915-.218 2.533-.652.636-.452.953-1.045.953-1.78 0-.636-.167-1.138-.501-1.506-.335-.384-.878-.652-1.63-.802l-2.91-.652c-1.554-.335-2.733-.936-3.536-1.806-.802-.886-1.203-2.04-1.203-3.46zM65.948 30.97V18.58h3.06v12.39h-3.06zm1.505-14.872c-.519 0-.962-.176-1.33-.527a1.856 1.856 0 0 1-.526-1.329c0-.518.175-.953.527-1.304.367-.351.81-.527 1.329-.527.518 0 .953.176 1.304.527.368.351.552.786.552 1.304s-.184.962-.552 1.33a1.771 1.771 0 0 1-1.304.526zm4.014 8.401c0-1.203.242-2.273.727-3.21a5.768 5.768 0 0 1 2.081-2.257c.886-.551 1.915-.827 3.085-.827 1.053 0 1.956.234 2.709.702a3.618 3.618 0 0 1 1.58 1.906l-.326.276.25-2.508h2.834v11.762c0 1.37-.267 2.558-.802 3.561-.519 1.02-1.263 1.797-2.232 2.332-.953.552-2.107.828-3.461.828-1.772 0-3.227-.477-4.364-1.43s-1.806-2.257-2.006-3.912h3.06c.1.803.434 1.43 1.003 1.881.585.451 1.354.677 2.307.677 1.053 0 1.89-.31 2.508-.928.635-.602.953-1.42.953-2.457V27.81l.35.326c-.3.786-.852 1.413-1.654 1.88-.803.469-1.73.703-2.784.703-1.17 0-2.19-.267-3.06-.803a5.51 5.51 0 0 1-2.031-2.206c-.485-.937-.727-2.007-.727-3.21zm3.084-.075c0 .702.134 1.33.401 1.881a3.36 3.36 0 0 0 1.18 1.28c.5.317 1.086.476 1.755.476.702 0 1.304-.15 1.805-.452a3.102 3.102 0 0 0 1.18-1.279c.283-.552.425-1.187.425-1.906 0-.719-.133-1.337-.4-1.856a2.942 2.942 0 0 0-1.18-1.254c-.501-.3-1.111-.451-1.83-.451-.686 0-1.28.159-1.78.477-.502.3-.887.718-1.154 1.253-.268.535-.402 1.146-.402 1.831zm16.082 6.546h-3.06V18.58h2.835l.25 1.606c.385-.619.928-1.104 1.63-1.455a5.243 5.243 0 0 1 2.333-.526c1.555 0 2.725.46 3.51 1.379.803.92 1.205 2.174 1.205 3.762v7.624h-3.06v-6.897c0-1.037-.234-1.806-.702-2.307-.468-.518-1.104-.778-1.906-.778-.953 0-1.697.301-2.232.903-.535.602-.803 1.405-.803 2.408v6.67zm20.11-12.39h3.06v12.39h-2.834l-.226-1.655c-.368.585-.919 1.061-1.655 1.429a5.198 5.198 0 0 1-2.357.552c-1.422 0-2.533-.452-3.336-1.355-.802-.902-1.204-2.106-1.204-3.61v-7.75h3.06v6.67c0 1.171.226 2.015.677 2.534.451.518 1.104.777 1.956.777.97 0 1.689-.284 2.157-.852.468-.586.702-1.463.702-2.634V18.58zm9.28 12.39h-3.06V18.58h2.809l.376 2.208-.351-.301c.251-.602.71-1.129 1.379-1.58.669-.468 1.505-.702 2.508-.702 1.087 0 1.973.284 2.658.852.703.569 1.187 1.321 1.455 2.257h-.502a3.605 3.605 0 0 1 1.405-2.257c.769-.568 1.697-.852 2.784-.852 1.504 0 2.658.426 3.46 1.279.803.836 1.204 1.964 1.204 3.385v8.1h-3.034v-7.297c0-.886-.226-1.555-.677-2.006-.435-.469-1.02-.703-1.756-.703-.468 0-.903.109-1.304.326-.385.218-.694.544-.928.978-.234.435-.351.995-.351 1.68v7.023h-3.06v-7.323c0-.87-.217-1.53-.652-1.982-.434-.45-1.011-.677-1.73-.677-.485 0-.928.109-1.329.326-.402.201-.719.527-.953.979-.234.434-.351.986-.351 1.655v7.022zm21.185.3a1.995 1.995 0 0 1-1.429-.576 1.873 1.873 0 0 1-.602-1.405c0-.551.201-1.02.602-1.404a1.952 1.952 0 0 1 1.429-.602c.552 0 1.029.2 1.43.602.401.385.602.853.602 1.404 0 .552-.201 1.02-.602 1.405a1.996 1.996 0 0 1-1.43.577z"/></g><defs><clipPath id="a"><path fill="#fff" d="M50.097.625h98.035v37.998H50.097z"/></clipPath></defs></svg>