<svg xmlns="http://www.w3.org/2000/svg" width="255" height="100" fill="none"><rect width="253.836" height="100" x=".299" fill="#FCFBFF" rx="20"/><path fill="#170F49" d="M97.42 60.429V36.905h9.442c2.442 0 4.302.572 5.579 1.714 1.299 1.12 1.949 2.565 1.949 4.335 0 1.479-.403 2.666-1.21 3.562a5.9 5.9 0 0 1-2.89 1.782c1.344.268 2.453.94 3.327 2.016.874 1.053 1.311 2.285 1.311 3.696 0 1.86-.672 3.395-2.017 4.604-1.344 1.21-3.248 1.815-5.712 1.815h-9.78zm4.301-13.644h4.503c1.21 0 2.14-.28 2.789-.84.65-.56.975-1.355.975-2.386 0-.986-.325-1.758-.975-2.319-.627-.582-1.579-.873-2.856-.873h-4.436v6.418zm0 10.149h4.805c1.277 0 2.263-.291 2.958-.874.717-.605 1.075-1.445 1.075-2.52 0-1.098-.37-1.96-1.109-2.588-.739-.627-1.736-.94-2.991-.94h-4.738v6.922zm16.798 3.495V36.233h4.301V60.43h-4.301zm16.694.403c-1.613 0-3.069-.37-4.368-1.109a8.335 8.335 0 0 1-3.058-3.058c-.74-1.322-1.109-2.845-1.109-4.57s.381-3.237 1.142-4.537c.762-1.322 1.781-2.352 3.058-3.091 1.3-.74 2.756-1.11 4.369-1.11 1.591 0 3.024.37 4.301 1.11a7.959 7.959 0 0 1 3.059 3.091c.761 1.3 1.142 2.812 1.142 4.537s-.381 3.248-1.142 4.57a8.022 8.022 0 0 1-3.059 3.058c-1.299.74-2.744 1.11-4.335 1.11zm0-3.73c1.121 0 2.095-.414 2.924-1.243.829-.852 1.243-2.106 1.243-3.764s-.414-2.901-1.243-3.73c-.829-.852-1.792-1.277-2.89-1.277-1.143 0-2.128.425-2.957 1.277-.807.829-1.21 2.072-1.21 3.73s.403 2.912 1.21 3.764c.829.829 1.803 1.243 2.923 1.243zm20.548 3.73c-1.703 0-3.204-.37-4.503-1.109a8.199 8.199 0 0 1-3.092-3.091c-.739-1.322-1.109-2.834-1.109-4.537 0-1.703.37-3.215 1.109-4.537a8.199 8.199 0 0 1 3.092-3.091c1.299-.74 2.8-1.11 4.503-1.11 2.128 0 3.921.56 5.377 1.68 1.456 1.099 2.386 2.622 2.789 4.571h-4.537c-.224-.806-.672-1.434-1.344-1.882-.649-.47-1.422-.706-2.318-.706-1.188 0-2.196.449-3.025 1.345-.829.896-1.243 2.14-1.243 3.73 0 1.59.414 2.834 1.243 3.73.829.896 1.837 1.344 3.025 1.344.896 0 1.669-.224 2.318-.672.672-.448 1.12-1.086 1.344-1.915h4.537c-.403 1.882-1.333 3.394-2.789 4.536-1.456 1.143-3.249 1.714-5.377 1.714zm11.984-.403V36.233h4.302v14.282l5.914-6.754h5.108l-6.822 7.595 7.931 9.073h-5.377l-6.754-8.368v8.368h-4.302zm19.1 0V36.233h4.301V60.43h-4.301zm10.78 7.393 3.865-8.502h-1.009l-6.485-15.56h4.671l4.671 11.729 4.873-11.728h4.57l-10.586 24.061h-4.57z"/><mask id="a" width="43" height="48" x="40" y="26" maskUnits="userSpaceOnUse" style="mask-type:alpha"><path fill="#C4C4C4" d="M57.5 27.813a8.051 8.051 0 0 1 8.052 0l13.176 7.607a8.052 8.052 0 0 1 4.026 6.973v15.214a8.052 8.052 0 0 1-4.026 6.973l-13.176 7.607a8.051 8.051 0 0 1-8.052 0L44.326 64.58a8.051 8.051 0 0 1-4.026-6.973V42.393a8.051 8.051 0 0 1 4.026-6.973L57.5 27.813z"/></mask><g mask="url(#a)"><path fill="#86B818" d="m61.526 25.09 23.269 13.433-23.269 13.434-23.268-13.434z"/><path fill="#0064D2" d="m40.116 38.718 21.41 12.36v24.723l-21.41-12.362z"/><path fill="#F5AF02" d="m61.526 51.082 21.41-12.361v24.722l-21.41 12.36z"/></g></svg>