<svg xmlns="http://www.w3.org/2000/svg" width="32" height="32" fill="none"><path fill="#1065E3" d="M21.333 5.667c0 1.653-1.346 3-3 3h-4.666a2.983 2.983 0 0 1-2.12-.88 2.983 2.983 0 0 1-.88-2.12c0-1.654 1.346-3 3-3h4.666a2.98 2.98 0 0 1 2.12.88 2.98 2.98 0 0 1 .88 2.12z"/><path fill="#1065E3" d="M25.107 6.707a3.772 3.772 0 0 0-1.027-.6c-.387-.147-.773.16-.853.56a4.982 4.982 0 0 1-4.894 4h-4.666A4.962 4.962 0 0 1 10.133 9.2a4.933 4.933 0 0 1-1.36-2.52c-.08-.4-.48-.72-.866-.56C6.36 6.747 5.333 8.16 5.333 11v13c0 4 2.387 5.333 5.334 5.333h10.666c2.947 0 5.334-1.333 5.334-5.333V11c0-2.173-.6-3.507-1.56-4.293zm-14.44 9.626H16c.547 0 1 .454 1 1 0 .547-.453 1-1 1h-5.333c-.547 0-1-.453-1-1 0-.546.453-1 1-1zm10.666 7.334H10.667c-.547 0-1-.454-1-1 0-.547.453-1 1-1h10.666c.547 0 1 .453 1 1 0 .546-.453 1-1 1z"/></svg>