<svg xmlns="http://www.w3.org/2000/svg" width="139" height="39" fill="none"><path fill="#40464D" d="M21.767 38.482c21.174-3.025 21.174-34.644 0-37.669 12.726 9.135 12.692 28.53 0 37.67z"/><path fill="#40464D" d="M13.385 37.729c1.319.424 2.637.706 4.05.8 10.942-10.039 10.95-27.773 0-37.81a22.028 22.028 0 0 0-4.05.8c9.193 10.093 9.19 26.12 0 36.21z"/><path fill="#40464D" d="M8.488 35.374c8.925-8.423 9.01-23.05 0-31.453-10.996 7.33-11 24.12 0 31.453z"/><g clip-path="url(#a)"><path fill="#40464D" d="M58.952 13.456c-1.13 0-2.097.259-2.898.777-.8.518-1.413 1.24-1.837 2.168-.425.91-.636 1.994-.636 3.25 0 1.273.227 2.357.683 3.252.455.88 1.083 1.547 1.884 2.002.817.456 1.752.683 2.804.683.77 0 1.445-.094 2.026-.282a4.186 4.186 0 0 0 1.508-.872 3.99 3.99 0 0 0 .942-1.414c.236-.55.354-1.162.354-1.837v-1.508l1.413 1.437h-6.62V18.45h8.01v9.683h-2.544l-.26-2.78.354.353c-.251.518-.652.982-1.202 1.39-.534.409-1.17.73-1.908.966-.738.22-1.54.33-2.403.33-1.602 0-3.023-.361-4.264-1.084-1.225-.738-2.191-1.767-2.898-3.086-.69-1.32-1.036-2.866-1.036-4.641 0-1.743.353-3.283 1.06-4.618a8.056 8.056 0 0 1 3.015-3.18c1.304-.77 2.812-1.154 4.524-1.154 1.319 0 2.512.243 3.58.73 1.069.471 1.94 1.139 2.616 2.002.69.864 1.115 1.885 1.272 3.063h-3.18c-.268-1.02-.802-1.767-1.603-2.238-.8-.487-1.72-.73-2.756-.73zm17.746 2.992v2.662h-1.06c-1.053 0-1.877.282-2.474.848-.597.55-.895 1.39-.895 2.52v5.655h-2.875V16.518h2.71l.235 2.403h-.282a3.225 3.225 0 0 1 1.107-1.884c.58-.487 1.335-.73 2.261-.73.205 0 .409.007.613.023.204.016.424.055.66.118zm4.948 11.991c-1.225 0-2.199-.33-2.921-.99-.707-.675-1.06-1.554-1.06-2.638 0-1.068.369-1.916 1.107-2.544.754-.644 1.822-1.021 3.204-1.131l3.487-.283v-.259c0-.534-.102-.958-.307-1.272a1.587 1.587 0 0 0-.824-.707c-.361-.157-.785-.236-1.272-.236-.849 0-1.5.173-1.956.519-.455.33-.683.8-.683 1.413h-2.45c0-.848.212-1.578.636-2.19.44-.629 1.052-1.116 1.838-1.461.8-.346 1.72-.519 2.756-.519 1.052 0 1.955.189 2.71.566a3.85 3.85 0 0 1 1.743 1.649c.408.722.612 1.625.612 2.71v7.067h-2.52l-.213-1.72c-.25.597-.738 1.084-1.46 1.46-.707.378-1.516.566-2.427.566zm.919-2.167c.895 0 1.602-.252 2.12-.754.534-.503.801-1.202.801-2.097v-.613l-2.426.189c-.896.079-1.532.267-1.909.565-.377.283-.565.66-.565 1.131 0 .518.173.911.518 1.178.346.267.833.4 1.46.4zm8.525 7.256V16.495h2.662l.188 1.767c.346-.676.88-1.194 1.602-1.555a5.066 5.066 0 0 1 2.38-.566c1.115 0 2.073.252 2.874.754.817.503 1.453 1.202 1.908 2.097.456.895.684 1.955.684 3.18 0 1.21-.213 2.286-.637 3.228-.424.942-1.044 1.688-1.861 2.238-.801.534-1.782.801-2.945.801a5.66 5.66 0 0 1-2.38-.495c-.706-.33-1.24-.785-1.601-1.366v6.95H91.09zm2.897-11.214c0 .69.134 1.303.401 1.837s.644.958 1.13 1.273c.503.298 1.085.447 1.744.447.675 0 1.257-.15 1.744-.447a3.006 3.006 0 0 0 1.107-1.273c.251-.534.377-1.146.377-1.837 0-.691-.126-1.304-.377-1.838a2.856 2.856 0 0 0-1.107-1.248c-.487-.315-1.069-.472-1.744-.472-.66 0-1.24.15-1.743.448a3.005 3.005 0 0 0-1.131 1.249c-.267.534-.4 1.154-.4 1.86zm14.563 5.819h-2.874V10.605h2.898v7.398a3.789 3.789 0 0 1 1.508-1.343c.659-.346 1.413-.519 2.261-.519 1.429 0 2.513.432 3.251 1.296.754.864 1.131 2.042 1.131 3.534v7.162h-2.874v-6.479c0-.66-.102-1.201-.306-1.625-.204-.424-.487-.739-.848-.943-.362-.22-.786-.33-1.273-.33-.596 0-1.115.134-1.554.4a2.579 2.579 0 0 0-.99 1.061c-.22.456-.33.974-.33 1.555v6.36zm10.316-5.843c0-1.21.267-2.27.801-3.18a5.652 5.652 0 0 1 2.214-2.168c.943-.518 2.011-.777 3.204-.777 1.21 0 2.278.259 3.204.777a5.648 5.648 0 0 1 2.215 2.168c.534.91.801 1.97.801 3.18 0 1.21-.267 2.278-.801 3.204a5.696 5.696 0 0 1-2.215 2.144c-.926.518-1.994.777-3.204.777-1.193 0-2.261-.259-3.204-.777a5.7 5.7 0 0 1-2.214-2.144c-.534-.926-.801-1.994-.801-3.204zm2.874 0c0 .707.141 1.327.424 1.861.299.534.691.95 1.178 1.249.503.298 1.084.448 1.743.448.66 0 1.241-.15 1.744-.448a3.12 3.12 0 0 0 1.178-1.249c.282-.534.424-1.154.424-1.86 0-.723-.142-1.344-.424-1.862a3.12 3.12 0 0 0-1.178-1.249c-.503-.298-1.084-.447-1.744-.447-.659 0-1.24.149-1.743.447a3.346 3.346 0 0 0-1.178 1.249c-.283.518-.424 1.139-.424 1.861z"/></g><defs><clipPath id="a"><path fill="#fff" d="M49.505.625h88.916v37.998H49.505z"/></clipPath></defs></svg>