<svg xmlns="http://www.w3.org/2000/svg" width="32" height="33" fill="none"><path fill="#1065E3" d="M21.587 3.09H10.413c-4.853 0-7.746 2.893-7.746 7.746v11.16c0 4.867 2.893 7.76 7.746 7.76h11.16c4.854 0 7.747-2.893 7.747-7.746V10.836c.013-4.853-2.88-7.746-7.733-7.746zM10.173 24.623c0 .547-.453 1-1 1-.546 0-1-.453-1-1v-2.76c0-.547.454-1 1-1 .547 0 1 .453 1 1v2.76zm6.827 0c0 .547-.453 1-1 1-.547 0-1-.453-1-1V19.09c0-.547.453-1 1-1 .547 0 1 .453 1 1v5.533zm6.827 0c0 .547-.454 1-1 1-.547 0-1-.453-1-1V16.33c0-.547.453-1 1-1 .546 0 1 .453 1 1v8.293zm0-12.507c0 .547-.454 1-1 1-.547 0-1-.453-1-1v-1.293A26.043 26.043 0 0 1 9.413 17.97c-.08.026-.16.026-.24.026a1.01 1.01 0 0 1-.973-.76.997.997 0 0 1 .733-1.213c4.494-1.12 8.494-3.48 11.667-6.813h-1.667c-.546 0-1-.454-1-1 0-.547.454-1 1-1h3.907c.053 0 .093.026.147.026.066.014.133.014.2.04.066.027.12.067.186.107.04.027.08.04.12.067.014.013.014.026.027.026.053.054.093.107.133.16.04.054.08.094.094.147.026.053.026.107.04.173.013.067.04.134.04.214 0 .013.013.026.013.04v3.906h-.013z"/></svg>