<svg xmlns="http://www.w3.org/2000/svg" width="32" height="32" fill="none"><path fill="#1065E3" d="m15.92 2.947-3.213 7.48H9.493a7.6 7.6 0 0 0-1.56.146l1.334-3.2.053-.12.08-.213c.04-.093.067-.173.107-.24 1.546-3.587 3.28-4.707 6.413-3.853zm9.053 7.84-.026-.014a8.915 8.915 0 0 0-2.44-.346H14.16l3-6.974.04-.093c.187.067.387.16.587.227l2.946 1.24c1.64.68 2.787 1.386 3.494 2.24.12.16.226.306.333.48.12.186.213.373.267.573.053.12.093.227.12.347.2.68.213 1.453.026 2.32zm-8.28 12.76h.334c.4 0 .733-.36.733-.8 0-.56-.16-.64-.507-.774l-.56-.2v1.774z"/><path fill="#1065E3" d="M24.387 12.693a6.74 6.74 0 0 0-1.88-.266H9.493c-.906 0-1.76.173-2.56.52a6.525 6.525 0 0 0-3.946 5.986v2.6c0 .32.026.627.066.947.294 4.24 2.56 6.507 6.8 6.787.307.04.614.066.947.066h10.4c4.933 0 7.533-2.346 7.787-7.013.013-.253.026-.52.026-.787v-2.6c0-2.946-1.96-5.426-4.626-6.24zm-6.68 7.974c.613.213 1.44.666 1.44 2.08 0 1.213-.947 2.186-2.12 2.186h-.334v.294a.688.688 0 0 1-.693.693.688.688 0 0 1-.693-.693v-.294h-.12c-1.28 0-2.334-1.08-2.334-2.413 0-.387.307-.693.694-.693.386 0 .693.306.693.693 0 .56.427 1.027.947 1.027h.12v-2.254l-1.014-.36c-.613-.213-1.44-.666-1.44-2.08 0-1.213.947-2.186 2.12-2.186h.334v-.294c0-.386.306-.693.693-.693.387 0 .693.307.693.693v.294h.12c1.28 0 2.334 1.08 2.334 2.413a.689.689 0 0 1-.694.693.689.689 0 0 1-.693-.693c0-.56-.427-1.027-.947-1.027h-.12v2.254l1.014.36z"/><path fill="#1065E3" d="M14.24 18.853c0 .56.16.64.507.774l.56.2v-1.774h-.334c-.413 0-.733.36-.733.8z"/></svg>