<svg xmlns="http://www.w3.org/2000/svg" width="131" height="39" fill="none"><path fill="#40464D" d="M18.65 32.491a9.873 9.873 0 0 1-8.36 4.612c-5.456 0-9.88-4.423-9.88-9.88 0-5.456 4.424-9.879 9.88-9.879 3.618 0 6.651 1.993 8.36 4.793-1.95 3.212-2.092 7.276 0 10.354z"/><path fill="#40464D" d="M28.517 17.344a9.873 9.873 0 0 1 8.341 4.646c2.892 4.627 1.485 10.722-3.142 13.613-4.628 2.892-10.723 1.485-13.614-3.143-1.918-3.068-1.835-6.696-.366-9.629 3.757-.049 7.28-2.082 8.781-5.487z"/><path fill="#40464D" d="M10.585 15.703a9.873 9.873 0 0 1 .307-9.543c2.788-4.69 8.85-6.232 13.541-3.444 4.69 2.788 6.232 8.85 3.444 13.54-1.849 3.11-5.111 4.7-8.391 4.738-1.765-3.317-5.186-5.516-8.9-5.291z"/><g clip-path="url(#a)"><path fill="#40464D" d="M56.22 29.525 49.3 11.192h3.41l4.013 10.558c.2.535.393 1.096.577 1.68.184.586.376 1.246.577 1.982a33.18 33.18 0 0 1 .627-2.082c.2-.585.384-1.111.551-1.58l3.963-10.558h3.335l-6.821 18.333h-3.31zm15.404.326c-1.22 0-2.307-.276-3.26-.828a6.096 6.096 0 0 1-2.207-2.307c-.535-.986-.802-2.115-.802-3.386 0-1.287.259-2.424.777-3.41a5.693 5.693 0 0 1 2.182-2.308c.936-.568 2.006-.852 3.21-.852 1.254 0 2.332.267 3.235.802a5.24 5.24 0 0 1 2.082 2.182c.501.936.752 2.057.752 3.36v.929l-10.633.025.05-1.956h7.548c0-.853-.275-1.539-.827-2.057-.535-.518-1.262-.777-2.182-.777-.719 0-1.33.15-1.83.451-.486.301-.853.752-1.104 1.354-.251.602-.376 1.338-.376 2.207 0 1.338.284 2.35.852 3.035.585.685 1.447 1.028 2.583 1.028.836 0 1.522-.159 2.057-.477.552-.317.911-.768 1.078-1.354h2.834c-.267 1.354-.936 2.416-2.006 3.185-1.053.77-2.391 1.154-4.013 1.154zm7.69-6.546c0-1.27.26-2.399.778-3.385.535-.987 1.262-1.756 2.182-2.308.936-.568 2.014-.852 3.235-.852 1.689 0 3.068.443 4.138 1.329 1.087.87 1.714 2.048 1.88 3.536h-3.059c-.184-.702-.526-1.229-1.028-1.58-.485-.368-1.095-.552-1.83-.552-.636 0-1.205.16-1.706.477-.485.3-.861.736-1.129 1.304-.267.568-.401 1.245-.401 2.031s.125 1.463.376 2.032c.251.568.61 1.011 1.079 1.329.485.3 1.053.451 1.705.451.77 0 1.404-.184 1.906-.551.518-.368.861-.895 1.028-1.58h3.085c-.134.97-.477 1.822-1.028 2.558a5.64 5.64 0 0 1-2.082 1.705c-.853.401-1.822.602-2.909.602-1.254 0-2.35-.268-3.285-.803a5.734 5.734 0 0 1-2.182-2.282c-.502-.986-.753-2.14-.753-3.46zm13.287-6.169h7.825v2.558h-7.825v-2.558zm5.442 12.389h-3.06V13.274h3.06v16.25zm12.085-12.44v2.835h-1.129c-1.12 0-1.998.3-2.633.902-.636.586-.953 1.48-.953 2.684v6.019h-3.06V17.16h2.884l.251 2.558h-.301c.167-.82.56-1.488 1.179-2.006.618-.518 1.421-.778 2.407-.778.218 0 .435.009.652.025.218.017.452.059.703.126zm5.267 12.766c-1.304 0-2.34-.351-3.11-1.053-.752-.72-1.128-1.656-1.128-2.81 0-1.136.393-2.039 1.179-2.708.802-.685 1.939-1.087 3.41-1.204l3.712-.3V21.5c0-.569-.109-1.02-.326-1.355a1.69 1.69 0 0 0-.878-.752c-.384-.167-.836-.25-1.354-.25-.903 0-1.597.183-2.082.551-.484.351-.727.853-.727 1.505h-2.608c0-.903.226-1.68.677-2.333.468-.668 1.12-1.187 1.956-1.555.853-.367 1.831-.551 2.934-.551 1.121 0 2.082.2 2.885.602.802.384 1.421.97 1.855 1.755.435.77.652 1.73.652 2.884v7.524h-2.683l-.226-1.83c-.267.634-.786 1.153-1.555 1.554-.752.401-1.613.602-2.583.602zm.978-2.307c.953 0 1.706-.268 2.257-.803.569-.535.853-1.279.853-2.232v-.652l-2.583.2c-.953.084-1.63.285-2.031.603a1.428 1.428 0 0 0-.602 1.203c0 .552.184.97.551 1.254.368.285.887.427 1.555.427z"/></g><defs><clipPath id="a"><path fill="#fff" d="M49.808.625h80.556v37.998H49.808z"/></clipPath></defs></svg>