<svg xmlns="http://www.w3.org/2000/svg" width="128" height="126" fill="none"><rect width="128" height="126" fill="url(#a)" rx="20"/><path fill="#50A454" d="M33.464 33.114H29.02v4.554h-2.332v-4.554h-4.444v-2.112h4.444v-4.554h2.332v4.554h4.444v2.112zm2.231-6.864v-2.288h4.576V40h-2.53V26.25h-2.046zm17.361-.132h-7.37v4.378c.309-.41.763-.755 1.364-1.034a4.696 4.696 0 0 1 1.959-.418c1.231 0 2.229.264 2.992.792.777.528 1.327 1.195 1.65 2.002.337.807.505 1.657.505 2.552 0 1.085-.212 2.053-.637 2.904a4.59 4.59 0 0 1-1.87 1.98c-.822.484-1.834.726-3.037.726-1.598 0-2.882-.396-3.85-1.188-.968-.792-1.547-1.84-1.737-3.146h2.442c.16.69.52 1.24 1.078 1.65.557.396 1.253.594 2.09.594 1.04 0 1.818-.315 2.332-.946.528-.63.791-1.467.791-2.508 0-1.056-.264-1.863-.791-2.42-.529-.572-1.306-.858-2.332-.858-.72 0-1.328.183-1.826.55-.484.352-.837.836-1.056 1.452h-2.377v-9.262h9.68v2.2zm2.315 1.716c0-1.07.308-1.907.924-2.508.63-.616 1.438-.924 2.42-.924.983 0 1.782.308 2.398.924.63.601.946 1.437.946 2.508 0 1.07-.315 1.914-.946 2.53-.616.616-1.415.924-2.398.924-.982 0-1.79-.308-2.42-.924-.616-.616-.924-1.46-.924-2.53zm13.42-3.146L60.013 40H57.55l8.778-15.312h2.464zM58.715 25.92c-.924 0-1.386.638-1.386 1.914 0 1.29.462 1.936 1.386 1.936.44 0 .778-.154 1.012-.462.25-.323.374-.814.374-1.474 0-1.276-.462-1.914-1.386-1.914zm5.61 10.912c0-1.07.308-1.907.924-2.508.63-.616 1.438-.924 2.42-.924.968 0 1.76.308 2.376.924.63.601.946 1.437.946 2.508 0 1.07-.315 1.914-.946 2.53-.616.616-1.408.924-2.376.924-.982 0-1.79-.308-2.42-.924-.616-.616-.924-1.46-.924-2.53zm3.322-1.914c-.924 0-1.386.638-1.386 1.914 0 1.276.462 1.914 1.386 1.914.924 0 1.386-.638 1.386-1.914 0-1.276-.462-1.914-1.386-1.914zm19.3-5.371h-7.894a.718.718 0 0 1-.507-1.227L82 24.867a1.42 1.42 0 0 1 2.007 0l1.313 1.313 2.14 2.14a.721.721 0 0 1-.513 1.227z"/><path fill="#485E79" d="M21.12 73V61.48h4.448c.645 0 1.208.133 1.688.4s.853.627 1.12 1.08c.267.448.4.944.4 1.488a2.87 2.87 0 0 1-.496 1.656c-.33.48-.773.813-1.328 1l-.016-.392c.747.213 1.333.587 1.76 1.12.427.533.64 1.179.64 1.936 0 .667-.141 1.243-.424 1.728-.283.48-.68.85-1.192 1.112-.512.261-1.107.392-1.784.392H21.12zm1.184-1.128h3.344c.47 0 .89-.083 1.264-.248.373-.17.667-.41.88-.72.219-.31.328-.683.328-1.12a2.237 2.237 0 0 0-1.104-1.968 2.143 2.143 0 0 0-1.152-.312h-3.56v4.368zm0-5.48h3.256c.368 0 .704-.083 1.008-.248a1.92 1.92 0 0 0 .992-1.712c0-.544-.19-.987-.568-1.328-.373-.341-.85-.512-1.432-.512h-3.256v3.8zm11.1 6.848c-.65 0-1.197-.117-1.64-.352a2.388 2.388 0 0 1-.983-.936 2.553 2.553 0 0 1-.328-1.272c0-.47.093-.87.28-1.2.191-.336.45-.61.776-.824a3.9 3.9 0 0 1 1.144-.488c.437-.107.92-.2 1.447-.28a36.417 36.417 0 0 1 1.56-.216 50.4 50.4 0 0 0 1.345-.184l-.416.256c.016-.853-.15-1.485-.496-1.896-.347-.41-.95-.616-1.809-.616-.591 0-1.093.133-1.503.4-.406.267-.691.688-.857 1.264l-1.143-.336c.197-.773.594-1.373 1.192-1.8.597-.427 1.373-.64 2.328-.64.789 0 1.458.15 2.008.448.554.293.946.72 1.175 1.28.107.25.176.53.209.84.032.31.047.624.047.944V73h-1.047v-2.168l.303.128c-.293.741-.749 1.307-1.367 1.696-.62.39-1.36.584-2.224.584zm.136-1.016c.55 0 1.03-.099 1.44-.296.411-.197.742-.467.992-.808.251-.347.414-.736.489-1.168.064-.277.098-.581.104-.912.005-.336.008-.587.008-.752l.447.232c-.4.053-.834.107-1.303.16-.465.053-.923.115-1.377.184-.448.07-.853.152-1.216.248-.245.07-.482.168-.712.296a1.644 1.644 0 0 0-.567.496c-.144.208-.216.467-.216.776 0 .25.06.493.183.728.128.235.331.43.608.584.283.155.657.232 1.12.232zm6.443.776V61.24h1.176V73h-1.176zm6.047.24c-.651 0-1.198-.117-1.64-.352a2.388 2.388 0 0 1-.984-.936 2.553 2.553 0 0 1-.328-1.272c0-.47.093-.87.28-1.2.192-.336.45-.61.776-.824a3.9 3.9 0 0 1 1.144-.488c.437-.107.92-.2 1.447-.28a36.417 36.417 0 0 1 1.56-.216 50.4 50.4 0 0 0 1.345-.184l-.416.256c.016-.853-.15-1.485-.496-1.896-.347-.41-.95-.616-1.809-.616-.591 0-1.093.133-1.503.4-.406.267-.691.688-.856 1.264l-1.144-.336c.197-.773.594-1.373 1.191-1.8.598-.427 1.374-.64 2.328-.64.79 0 1.46.15 2.009.448.554.293.946.72 1.175 1.28.107.25.176.53.209.84.032.31.047.624.047.944V73h-1.047v-2.168l.303.128c-.293.741-.749 1.307-1.367 1.696-.62.39-1.36.584-2.224.584zm.136-1.016c.549 0 1.029-.099 1.44-.296.41-.197.74-.467.991-.808.251-.347.414-.736.489-1.168.064-.277.098-.581.104-.912.005-.336.008-.587.008-.752l.447.232c-.4.053-.834.107-1.303.16-.465.053-.923.115-1.377.184-.448.07-.853.152-1.216.248-.245.07-.482.168-.712.296a1.656 1.656 0 0 0-.568.496c-.144.208-.215.467-.215.776 0 .25.06.493.184.728.127.235.33.43.607.584.283.155.657.232 1.12.232zM58.688 73v-4.408c0-.48-.045-.92-.136-1.32a3.043 3.043 0 0 0-.44-1.056 2.01 2.01 0 0 0-.776-.704c-.314-.165-.698-.248-1.152-.248-.416 0-.784.072-1.104.216a2.176 2.176 0 0 0-.8.624 2.797 2.797 0 0 0-.488.976 4.69 4.69 0 0 0-.168 1.312l-.832-.184c0-.885.155-1.63.464-2.232.31-.603.736-1.059 1.28-1.368.544-.31 1.168-.464 1.872-.464.517 0 .968.08 1.352.24.39.16.718.376.984.648.272.272.49.584.656.936.166.347.285.717.36 1.112.075.39.112.779.112 1.168V73h-1.184zm-6.248 0v-8.64h1.064v2.128h.12V73H52.44zm13.045.24c-.87 0-1.605-.195-2.208-.584a3.72 3.72 0 0 1-1.376-1.608c-.31-.688-.47-1.477-.48-2.368.01-.907.176-1.701.496-2.384.32-.688.782-1.221 1.384-1.6.603-.384 1.334-.576 2.192-.576.875 0 1.635.213 2.28.64a3.225 3.225 0 0 1 1.336 1.752l-1.152.368a2.434 2.434 0 0 0-.968-1.2 2.673 2.673 0 0 0-1.504-.432c-.634 0-1.16.147-1.576.44-.416.288-.725.69-.928 1.208-.202.517-.306 1.112-.312 1.784.01 1.035.25 1.867.72 2.496.47.624 1.168.936 2.096.936.587 0 1.086-.133 1.496-.4.416-.272.73-.667.944-1.184l1.184.352c-.32.768-.79 1.355-1.408 1.76-.618.4-1.357.6-2.216.6zm8.697 0c-.842 0-1.573-.187-2.192-.56a3.8 3.8 0 0 1-1.432-1.576c-.341-.677-.512-1.472-.512-2.384 0-.944.168-1.76.504-2.448.336-.688.808-1.219 1.416-1.592.614-.373 1.336-.56 2.168-.56.854 0 1.582.197 2.184.592.603.39 1.059.95 1.368 1.68.31.73.45 1.603.424 2.616h-1.2v-.416c-.021-1.12-.264-1.965-.728-2.536-.458-.57-1.13-.856-2.016-.856-.928 0-1.64.301-2.136.904-.49.603-.736 1.461-.736 2.576 0 1.088.246 1.933.736 2.536.496.597 1.198.896 2.104.896.619 0 1.158-.141 1.616-.424.464-.288.83-.701 1.096-1.24l1.096.424a3.92 3.92 0 0 1-1.512 1.752c-.661.41-1.41.616-2.248.616zm-3.304-4.232v-.984h6.6v.984h-6.6z"/><path fill="#212A40" d="M31.968 96.644a4.12 4.12 0 0 1-.55 2.068c-.352.645-.88 1.188-1.584 1.628-.69.44-1.51.704-2.464.792v1.782h-1.43v-1.782c-1.379-.132-2.493-.565-3.344-1.298-.85-.733-1.276-1.701-1.276-2.904h2.684c.044.572.227 1.049.55 1.43.323.367.785.601 1.386.704v-4.84c-.983-.25-1.782-.499-2.398-.748a4.016 4.016 0 0 1-1.584-1.232c-.425-.557-.638-1.32-.638-2.288 0-1.217.425-2.222 1.276-3.014.85-.807 1.965-1.276 3.344-1.408v-1.782h1.43v1.782c1.29.117 2.325.528 3.102 1.232.792.69 1.24 1.643 1.342 2.86H29.13a2.106 2.106 0 0 0-.528-1.21c-.308-.367-.719-.616-1.232-.748v4.752c.983.235 1.782.484 2.398.748.616.25 1.137.653 1.562 1.21.425.543.638 1.298.638 2.266zm-8.096-6.82c0 .601.176 1.07.528 1.408.367.337.88.609 1.54.814v-4.444c-.63.073-1.137.3-1.518.682-.367.381-.55.895-.55 1.54zm3.498 9.24c.645-.103 1.151-.36 1.518-.77.367-.425.55-.931.55-1.518s-.183-1.041-.55-1.364c-.352-.337-.858-.609-1.518-.814v4.466zm18.599-11.946h-7.37v4.378c.308-.41.762-.755 1.364-1.034a4.696 4.696 0 0 1 1.958-.418c1.232 0 2.229.264 2.992.792.777.528 1.327 1.195 1.65 2.002.337.807.506 1.657.506 2.552 0 1.085-.213 2.053-.638 2.904a4.59 4.59 0 0 1-1.87 1.98c-.822.484-1.834.726-3.036.726-1.6 0-2.882-.396-3.85-1.188-.968-.792-1.548-1.84-1.738-3.146h2.442c.16.69.52 1.24 1.078 1.65.557.396 1.254.594 2.09.594 1.04 0 1.818-.315 2.332-.946.528-.63.792-1.467.792-2.508 0-1.056-.264-1.863-.792-2.42-.528-.572-1.306-.858-2.332-.858-.72 0-1.328.183-1.826.55-.484.352-.836.836-1.056 1.452h-2.376v-9.262h9.68v2.2zm13.874-.22L53.727 101h-2.53l6.182-13.838h-8.14v-2.134h10.604v1.87zm5.227 11.088-2.662 6.072H60.78l1.562-6.072h2.728zm4.985-1.342c.147.733.462 1.29.946 1.672.484.381 1.137.572 1.958.572 1.042 0 1.804-.41 2.288-1.232.484-.821.726-2.222.726-4.202-.352.499-.85.887-1.496 1.166a5.3 5.3 0 0 1-2.068.396c-.953 0-1.818-.19-2.596-.572a4.486 4.486 0 0 1-1.848-1.738c-.44-.777-.66-1.716-.66-2.816 0-1.613.47-2.897 1.408-3.85.954-.968 2.259-1.452 3.916-1.452 1.995 0 3.41.667 4.246 2.002.851 1.32 1.276 3.351 1.276 6.094 0 1.892-.161 3.44-.484 4.642-.308 1.203-.85 2.112-1.628 2.728-.777.616-1.855.924-3.234.924-1.569 0-2.779-.411-3.63-1.232-.85-.821-1.327-1.855-1.43-3.102h2.31zm2.794-3.74c.88 0 1.57-.271 2.068-.814.514-.557.77-1.29.77-2.2 0-1.012-.271-1.797-.814-2.354-.528-.572-1.254-.858-2.178-.858-.924 0-1.657.293-2.2.88-.528.572-.792 1.327-.792 2.266 0 .895.257 1.635.77 2.222.528.572 1.32.858 2.376.858zm8.047-.132c0-2.537.425-4.517 1.276-5.94.865-1.437 2.347-2.156 4.444-2.156s3.572.719 4.422 2.156c.865 1.423 1.298 3.403 1.298 5.94 0 2.567-.433 4.576-1.298 6.028-.85 1.437-2.325 2.156-4.422 2.156-2.097 0-3.579-.719-4.444-2.156-.85-1.452-1.276-3.461-1.276-6.028zm8.976 0c0-1.188-.08-2.193-.242-3.014-.146-.821-.454-1.489-.924-2.002-.47-.528-1.166-.792-2.09-.792-.924 0-1.62.264-2.09.792-.47.513-.784 1.18-.946 2.002-.147.821-.22 1.826-.22 3.014 0 1.232.073 2.266.22 3.102.147.836.455 1.51.924 2.024.484.513 1.188.77 2.112.77.924 0 1.62-.257 2.09-.77.484-.513.8-1.188.946-2.024.147-.836.22-1.87.22-3.102zm5.118 0c0-2.537.425-4.517 1.276-5.94.865-1.437 2.347-2.156 4.444-2.156s3.571.719 4.422 2.156c.865 1.423 1.298 3.403 1.298 5.94 0 2.567-.433 4.576-1.298 6.028-.851 1.437-2.325 2.156-4.422 2.156-2.097 0-3.579-.719-4.444-2.156-.85-1.452-1.276-3.461-1.276-6.028zm8.976 0c0-1.188-.081-2.193-.242-3.014-.147-.821-.455-1.489-.924-2.002-.469-.528-1.166-.792-2.09-.792-.924 0-1.62.264-2.09.792-.47.513-.785 1.18-.946 2.002-.147.821-.22 1.826-.22 3.014 0 1.232.073 2.266.22 3.102.147.836.455 1.51.924 2.024.484.513 1.188.77 2.112.77.924 0 1.621-.257 2.09-.77.484-.513.799-1.188.946-2.024.147-.836.22-1.87.22-3.102z"/><defs><linearGradient id="a" x1="108.843" x2="-45.524" y1="0" y2="94.893" gradientUnits="userSpaceOnUse"><stop stop-color="#fff"/><stop offset="1" stop-color="#C8D3E3"/></linearGradient></defs></svg>