<svg xmlns="http://www.w3.org/2000/svg" width="257" height="100" fill="none"><rect width="256.446" height="100" x=".248" fill="#E5EAFF" rx="20"/><path fill="#2946D3" d="M40.248 41.028c0-.468.248-.9.652-1.136l15.63-9.135c.877-.513 1.98.12 1.98 1.136v13.765l-9.034-5.385v26.729h-7.912c-.727 0-1.316-.59-1.316-1.316V41.028z"/><path fill="#2947D5" d="m58.51 45.675 8.52 5.227c.39.239.627.664.627 1.121v13.663c0 .727-.59 1.316-1.316 1.316h-6.515c-.727 0-1.316-.59-1.316-1.316V45.675zM90.025 63.4V39.404h4.388l11.278 16.9v-16.9h4.388V63.4h-4.388L94.413 46.535V63.4h-4.388zm32.865.412c-1.714 0-3.234-.366-4.56-1.097a7.94 7.94 0 0 1-3.119-3.085c-.754-1.326-1.131-2.857-1.131-4.594 0-1.76.365-3.325 1.097-4.696.754-1.372 1.782-2.434 3.085-3.188 1.325-.777 2.879-1.166 4.662-1.166 1.668 0 3.142.366 4.422 1.097a7.717 7.717 0 0 1 2.982 3.017c.732 1.257 1.097 2.662 1.097 4.216 0 .252-.011.514-.034.789 0 .274-.011.56-.034.857h-12.924c.092 1.325.549 2.365 1.372 3.12.845.753 1.862 1.13 3.05 1.13.892 0 1.634-.194 2.229-.582a3.791 3.791 0 0 0 1.371-1.577h4.456A8.117 8.117 0 0 1 129.3 61c-.731.868-1.645 1.554-2.742 2.057-1.074.502-2.297.754-3.668.754zm.034-14.26c-1.074 0-2.023.308-2.845.925-.823.594-1.349 1.508-1.577 2.742h8.467c-.069-1.12-.48-2.01-1.234-2.674-.754-.662-1.691-.994-2.811-.994zm20.351 14.26c-1.646 0-3.131-.377-4.457-1.131a8.504 8.504 0 0 1-3.119-3.12c-.755-1.348-1.132-2.902-1.132-4.662 0-1.76.389-3.302 1.166-4.628.777-1.348 1.817-2.4 3.119-3.154 1.326-.754 2.811-1.13 4.457-1.13 1.622 0 3.085.376 4.388 1.13a8.115 8.115 0 0 1 3.119 3.154c.777 1.326 1.166 2.868 1.166 4.628 0 1.76-.389 3.314-1.166 4.662a8.181 8.181 0 0 1-3.119 3.12c-1.326.754-2.8 1.13-4.422 1.13zm0-3.805c1.142 0 2.136-.423 2.982-1.269.845-.868 1.268-2.148 1.268-3.839 0-1.691-.423-2.96-1.268-3.805-.846-.869-1.828-1.303-2.948-1.303-1.166 0-2.171.434-3.017 1.303-.823.845-1.234 2.114-1.234 3.805 0 1.691.411 2.97 1.234 3.84.846.845 1.84 1.268 2.983 1.268zm12.63 10.935V46.398h3.908l.48 2.433c.548-.754 1.268-1.417 2.159-1.988.914-.571 2.091-.857 3.531-.857 1.6 0 3.028.389 4.285 1.166 1.257.777 2.251 1.84 2.982 3.188.732 1.348 1.097 2.88 1.097 4.593 0 1.714-.365 3.245-1.097 4.594a8.415 8.415 0 0 1-2.982 3.154c-1.257.754-2.685 1.13-4.285 1.13-1.28 0-2.399-.24-3.359-.72a6.053 6.053 0 0 1-2.331-2.022v9.873h-4.388zm9.153-10.97c1.394 0 2.548-.468 3.462-1.405.914-.937 1.371-2.148 1.371-3.634 0-1.485-.457-2.708-1.371-3.668-.914-.96-2.068-1.44-3.462-1.44-1.417 0-2.583.48-3.497 1.44-.891.937-1.337 2.148-1.337 3.634 0 1.485.446 2.708 1.337 3.668.914.937 2.08 1.405 3.497 1.405zm19.071 3.84c-1.463 0-2.662-.229-3.599-.686-.937-.48-1.634-1.108-2.091-1.885a4.97 4.97 0 0 1-.686-2.571c0-1.577.617-2.857 1.851-3.84 1.234-.982 3.085-1.474 5.553-1.474h4.32v-.411c0-1.166-.332-2.023-.994-2.571-.663-.549-1.486-.823-2.469-.823-.891 0-1.668.217-2.331.652-.662.411-1.074 1.028-1.234 1.85h-4.285c.115-1.233.526-2.307 1.234-3.222.732-.914 1.669-1.61 2.811-2.09 1.143-.504 2.423-.755 3.84-.755 2.422 0 4.33.606 5.724 1.817 1.395 1.211 2.092 2.925 2.092 5.142V63.4h-3.737l-.411-2.742a6.292 6.292 0 0 1-2.126 2.262c-.891.595-2.045.892-3.462.892zm.994-3.428c1.257 0 2.228-.412 2.914-1.234.708-.823 1.154-1.84 1.337-3.051h-3.737c-1.165 0-1.999.217-2.502.651-.503.411-.754.926-.754 1.543 0 .662.251 1.177.754 1.542.503.366 1.165.549 1.988.549zm14.485 10.558 3.942-8.673h-1.028l-6.616-15.871h4.765l4.765 11.963 4.97-11.963h4.662L204.27 70.942h-4.662z"/></svg>