<svg xmlns="http://www.w3.org/2000/svg" width="26" height="26" fill="none"><path fill="#1065E3" d="m24.97 11.987-1.632-1.895c-.312-.36-.564-1.032-.564-1.512V6.54a2.325 2.325 0 0 0-2.316-2.315h-2.04c-.468 0-1.153-.252-1.513-.564L15.01 2.03c-.828-.708-2.184-.708-3.024 0l-1.884 1.643c-.36.3-1.044.552-1.512.552H6.513a2.325 2.325 0 0 0-2.316 2.316v2.051c0 .468-.252 1.14-.552 1.5l-1.62 1.907c-.697.828-.697 2.172 0 3l1.62 1.907c.3.36.552 1.032.552 1.5v2.051a2.325 2.325 0 0 0 2.316 2.316h2.076c.468 0 1.152.251 1.512.563l1.896 1.632c.828.708 2.184.708 3.024 0l1.896-1.632c.36-.312 1.032-.563 1.512-.563h2.04a2.325 2.325 0 0 0 2.317-2.316v-2.04c0-.467.252-1.151.564-1.511l1.632-1.896c.696-.827.696-2.195-.012-3.023zM19.113 13.5l-1.404 4.27c-.18.709-.936 1.284-1.704 1.284h-2.22c-.384 0-.924-.132-1.164-.372l-1.764-1.38c-.036.769-.384 1.093-1.236 1.093h-.576c-.888 0-1.248-.348-1.248-1.188V11.47c0-.84.36-1.187 1.248-1.187h.588c.888 0 1.248.348 1.248 1.187v.432l2.328-3.455c.24-.372.852-.636 1.368-.432.564.192.924.816.804 1.368l-.288 1.871a.53.53 0 0 0 .12.444c.096.108.24.18.396.18h2.34c.456 0 .84.18 1.068.504.204.312.24.708.096 1.116z"/></svg>