<svg xmlns="http://www.w3.org/2000/svg" width="120" height="115" fill="none"><rect width="120" height="115" fill="url(#a)" rx="20"/><path fill="#50A454" d="M30.956 30.98v2.112h-9.042V30.98h9.042zm1.903-4.73v-2.288h4.576V40h-2.53V26.25H32.86zm10.145 9.394c.147.733.463 1.29.947 1.672.483.381 1.136.572 1.957.572 1.042 0 1.804-.41 2.288-1.232.485-.821.727-2.222.727-4.202-.352.499-.851.887-1.497 1.166a5.3 5.3 0 0 1-2.068.396c-.953 0-1.818-.19-2.595-.572a4.486 4.486 0 0 1-1.849-1.738c-.44-.777-.66-1.716-.66-2.816 0-1.613.47-2.897 1.409-3.85.953-.968 2.258-1.452 3.916-1.452 1.994 0 3.41.667 4.245 2.002.851 1.32 1.276 3.351 1.276 6.094 0 1.892-.16 3.44-.483 4.642-.308 1.203-.851 2.112-1.628 2.728-.778.616-1.856.924-3.234.924-1.57 0-2.78-.41-3.63-1.232-.851-.821-1.328-1.855-1.43-3.102h2.31zm2.794-3.74c.88 0 1.57-.271 2.069-.814.513-.557.77-1.29.77-2.2 0-1.012-.272-1.797-.815-2.354-.528-.572-1.254-.858-2.178-.858-.923 0-1.657.293-2.2.88-.528.572-.791 1.327-.791 2.266 0 .895.256 1.635.77 2.222.527.572 1.32.858 2.375.858zm6.651-4.07c0-1.07.308-1.907.924-2.508.631-.616 1.438-.924 2.42-.924.983 0 1.782.308 2.398.924.631.601.946 1.437.946 2.508 0 1.07-.315 1.914-.946 2.53-.616.616-1.415.924-2.398.924-.982 0-1.789-.308-2.42-.924-.616-.616-.924-1.46-.924-2.53zm13.42-3.146L57.091 40h-2.464l8.778-15.312h2.464zM55.793 25.92c-.924 0-1.386.638-1.386 1.914 0 1.29.462 1.936 1.386 1.936.44 0 .778-.154 1.012-.462.25-.323.374-.814.374-1.474 0-1.276-.462-1.914-1.386-1.914zm5.61 10.912c0-1.07.308-1.907.924-2.508.631-.616 1.438-.924 2.42-.924.968 0 1.76.308 2.376.924.631.601.946 1.437.946 2.508 0 1.07-.315 1.914-.946 2.53-.616.616-1.408.924-2.376.924-.982 0-1.789-.308-2.42-.924-.616-.616-.924-1.46-.924-2.53zm3.322-1.914c-.924 0-1.386.638-1.386 1.914 0 1.276.462 1.914 1.386 1.914.924 0 1.386-.638 1.386-1.914 0-1.276-.462-1.914-1.386-1.914zm20.222-.465h-7.894c-.64 0-.96.774-.506 1.227L80 39.133a1.42 1.42 0 0 0 2.007 0l1.313-1.313 2.14-2.14a.721.721 0 0 0-.513-1.227z"/><path fill="#485E79" d="M25.12 73.24c-.805 0-1.53-.133-2.176-.4a4.213 4.213 0 0 1-1.592-1.152 3.783 3.783 0 0 1-.816-1.768l1.2-.2a2.962 2.962 0 0 0 1.216 1.76c.619.421 1.357.632 2.216.632a4.13 4.13 0 0 0 1.52-.264c.448-.181.8-.437 1.056-.768.256-.33.384-.723.384-1.176a1.65 1.65 0 0 0-.16-.76 1.536 1.536 0 0 0-.424-.528 2.615 2.615 0 0 0-.576-.344 4.551 4.551 0 0 0-.608-.232l-2.92-.872a5.309 5.309 0 0 1-.976-.384 3.45 3.45 0 0 1-.784-.568 2.434 2.434 0 0 1-.512-.784 2.676 2.676 0 0 1-.184-1.024c0-.65.17-1.213.512-1.688.341-.475.808-.84 1.4-1.096.592-.256 1.267-.381 2.024-.376.768 0 1.453.136 2.056.408.608.272 1.11.661 1.504 1.168.395.501.656 1.096.784 1.784l-1.232.224a2.79 2.79 0 0 0-.552-1.304 2.818 2.818 0 0 0-1.104-.848 3.562 3.562 0 0 0-1.464-.312c-.517 0-.979.088-1.384.264-.4.17-.717.405-.952.704-.235.299-.352.64-.352 1.024 0 .39.107.701.32.936a2.3 2.3 0 0 0 .8.552c.32.133.63.243.928.328l2.256.664c.235.064.51.157.824.28.32.117.63.288.928.512.304.219.555.507.752.864.197.357.296.81.296 1.36 0 .533-.107 1.01-.32 1.432a2.944 2.944 0 0 1-.888 1.064 4.06 4.06 0 0 1-1.336.656 5.677 5.677 0 0 1-1.664.232zm8.331 0c-.65 0-1.197-.117-1.64-.352a2.387 2.387 0 0 1-.984-.936 2.553 2.553 0 0 1-.328-1.272c0-.47.094-.87.28-1.2a2.4 2.4 0 0 1 .776-.824 3.912 3.912 0 0 1 1.144-.488c.438-.107.92-.2 1.448-.28a36.417 36.417 0 0 1 1.56-.216 50.4 50.4 0 0 0 1.344-.184l-.416.256c.016-.853-.149-1.485-.496-1.896-.346-.41-.949-.616-1.808-.616-.592 0-1.093.133-1.504.4-.405.267-.69.688-.856 1.264l-1.144-.336c.198-.773.595-1.373 1.192-1.8.598-.427 1.374-.64 2.328-.64.79 0 1.459.15 2.008.448.555.293.947.72 1.176 1.28.107.25.176.53.208.84.032.31.048.624.048.944V73H36.74v-2.168l.304.128c-.293.741-.749 1.307-1.368 1.696-.618.39-1.36.584-2.224.584zm.136-1.016c.55 0 1.03-.099 1.44-.296.411-.197.742-.467.992-.808a2.76 2.76 0 0 0 .488-1.168c.064-.277.099-.581.104-.912.006-.336.008-.587.008-.752l.448.232c-.4.053-.834.107-1.304.16-.464.053-.922.115-1.376.184-.448.07-.853.152-1.216.248-.245.07-.482.168-.712.296a1.656 1.656 0 0 0-.568.496c-.144.208-.216.467-.216.776 0 .25.062.493.184.728.128.235.331.43.608.584.283.155.656.232 1.12.232zm8.306.776-3.136-8.64h1.193l2.551 7.104 2.537-7.104h1.208L43.108 73h-1.215zm9.133.24c-.843 0-1.573-.187-2.192-.56a3.8 3.8 0 0 1-1.432-1.576c-.341-.677-.512-1.472-.512-2.384 0-.944.168-1.76.504-2.448.336-.688.808-1.219 1.416-1.592.613-.373 1.336-.56 2.168-.56.853 0 1.581.197 2.184.592.603.39 1.059.95 1.368 1.68.31.73.45 1.603.424 2.616h-1.2v-.416c-.021-1.12-.264-1.965-.728-2.536-.459-.57-1.13-.856-2.016-.856-.928 0-1.64.301-2.136.904-.49.603-.736 1.461-.736 2.576 0 1.088.245 1.933.736 2.536.496.597 1.197.896 2.104.896.619 0 1.157-.141 1.616-.424.464-.288.83-.701 1.096-1.24l1.096.424a3.919 3.919 0 0 1-1.512 1.752c-.661.41-1.41.616-2.248.616zm-3.304-4.232v-.984h6.6v.984h-6.6zm12.36 4.232c-.806 0-1.494-.2-2.065-.6-.57-.405-1.008-.952-1.312-1.64-.304-.688-.456-1.464-.456-2.328 0-.859.15-1.632.448-2.32.304-.688.739-1.232 1.304-1.632.566-.4 1.243-.6 2.032-.6.811 0 1.494.197 2.048.592.555.395.974.936 1.256 1.624.288.683.432 1.461.432 2.336 0 .859-.141 1.635-.424 2.328-.282.688-.698 1.235-1.248 1.64-.549.4-1.221.6-2.016.6zm.12-1.096c.613 0 1.12-.15 1.52-.448.4-.299.698-.71.895-1.232.198-.528.296-1.125.296-1.792 0-.677-.098-1.275-.296-1.792-.197-.523-.496-.93-.896-1.224-.394-.293-.893-.44-1.496-.44-.618 0-1.13.152-1.536.456-.405.304-.706.717-.904 1.24a5.076 5.076 0 0 0-.288 1.76c0 .656.099 1.248.296 1.776.203.523.504.936.904 1.24.4.304.902.456 1.504.456zm2.711.856v-6.504h-.128V61.48h1.184V73h-1.056zm11.208 0a5.76 5.76 0 0 1-1.44.12 3.195 3.195 0 0 1-1.264-.304 1.824 1.824 0 0 1-.84-.848A2.491 2.491 0 0 1 70.32 71a37.44 37.44 0 0 1-.016-1.128V61.96h1.168v7.864c0 .363.002.667.008.912.01.24.067.453.168.64.192.357.496.57.912.64.421.07.941.053 1.56-.048V73zm-5.664-7.632V64.36h5.664v1.008h-5.664zM82.063 73v-4.408c0-.48-.045-.92-.136-1.32a3.043 3.043 0 0 0-.44-1.056 2.01 2.01 0 0 0-.776-.704c-.314-.165-.698-.248-1.152-.248-.416 0-.784.072-1.104.216a2.176 2.176 0 0 0-.8.624 2.797 2.797 0 0 0-.488.976A4.69 4.69 0 0 0 77 68.392l-.832-.184c0-.885.155-1.63.464-2.232.31-.603.736-1.059 1.28-1.368.544-.31 1.168-.464 1.872-.464.517 0 .968.08 1.352.24.39.16.718.376.984.648.272.272.49.584.656.936.165.347.285.717.36 1.112.075.39.112.779.112 1.168V73h-1.184zm-6.248 0V61.48h1.064v6.504H77V73h-1.184zm9.668-10.28V61.4h1.176v1.32h-1.176zm0 10.28v-8.64h1.176V73h-1.176zm6.798.232c-1.013 0-1.848-.219-2.504-.656a2.734 2.734 0 0 1-1.2-1.824l1.2-.2c.129.49.42.883.873 1.176.458.288 1.023.432 1.695.432.656 0 1.174-.136 1.552-.408.38-.277.569-.653.569-1.128 0-.267-.062-.483-.184-.648-.118-.17-.36-.328-.728-.472-.368-.144-.918-.315-1.648-.512-.785-.213-1.398-.427-1.84-.64-.443-.213-.758-.459-.945-.736-.186-.283-.28-.627-.28-1.032 0-.49.14-.92.416-1.288.278-.373.662-.661 1.152-.864.491-.208 1.062-.312 1.712-.312.651 0 1.233.107 1.745.32.517.208.933.501 1.248.88.314.379.5.819.56 1.32l-1.2.216a1.728 1.728 0 0 0-.76-1.2c-.422-.299-.958-.453-1.608-.464-.614-.016-1.112.101-1.496.352-.385.245-.576.573-.576.984 0 .23.069.427.207.592.14.16.39.312.752.456.369.144.891.301 1.569.472.794.203 1.418.416 1.871.64.454.224.776.488.968.792.193.304.288.68.288 1.128 0 .816-.303 1.459-.911 1.928-.603.464-1.435.696-2.497.696zM31.424 92l.008-5.672c0-.667-.187-1.19-.56-1.568-.368-.384-.837-.576-1.408-.576-.325 0-.643.075-.952.224-.31.15-.565.39-.768.72-.197.33-.296.763-.296 1.296l-.696-.2c-.016-.619.104-1.16.36-1.624a2.782 2.782 0 0 1 1.072-1.08 3.08 3.08 0 0 1 1.552-.392c.87 0 1.565.27 2.088.808.523.533.784 1.256.784 2.168L32.6 92h-1.176zm-10.312 0v-8.64h1.056v2.128h.128V92h-1.184zm5.168 0 .008-5.592c0-.688-.184-1.23-.552-1.624-.363-.4-.843-.6-1.44-.6s-1.08.205-1.448.616c-.368.405-.552.947-.552 1.624l-.704-.384c0-.555.13-1.05.392-1.488a2.79 2.79 0 0 1 1.072-1.04 3.085 3.085 0 0 1 1.544-.384c.55 0 1.037.117 1.464.352.432.235.77.576 1.016 1.024.245.448.368.992.368 1.632L27.44 92h-1.16zm11.964.24c-.859 0-1.592-.195-2.2-.584a3.8 3.8 0 0 1-1.4-1.616c-.326-.688-.488-1.477-.488-2.368 0-.907.165-1.701.496-2.384.33-.683.8-1.213 1.408-1.592.613-.384 1.341-.576 2.184-.576.864 0 1.6.195 2.208.584a3.68 3.68 0 0 1 1.4 1.608c.325.683.488 1.47.488 2.36 0 .907-.163 1.704-.488 2.392a3.738 3.738 0 0 1-1.408 1.6c-.614.384-1.347.576-2.2.576zm0-1.128c.96 0 1.674-.317 2.144-.952.469-.64.704-1.47.704-2.488 0-1.045-.238-1.877-.712-2.496-.47-.619-1.182-.928-2.136-.928-.646 0-1.179.147-1.6.44-.416.288-.728.69-.936 1.208-.203.512-.304 1.104-.304 1.776 0 1.04.24 1.875.72 2.504.48.624 1.186.936 2.12.936zm12.1.888v-4.408c0-.48-.045-.92-.136-1.32a3.046 3.046 0 0 0-.44-1.056 2.012 2.012 0 0 0-.776-.704c-.314-.165-.698-.248-1.152-.248-.416 0-.784.072-1.104.216a2.174 2.174 0 0 0-.8.624 2.795 2.795 0 0 0-.488.976 4.69 4.69 0 0 0-.168 1.312l-.832-.184c0-.885.155-1.63.464-2.232.31-.603.736-1.059 1.28-1.368.544-.31 1.168-.464 1.872-.464.518 0 .968.08 1.352.24.39.16.718.376.984.648.272.272.491.584.656.936.166.347.286.717.36 1.112.075.39.112.779.112 1.168V92h-1.184zm-6.248 0v-8.64h1.064v2.128h.12V92h-1.184zm14.212 0a5.76 5.76 0 0 1-1.44.12 3.195 3.195 0 0 1-1.264-.304 1.824 1.824 0 0 1-.84-.848 2.491 2.491 0 0 1-.256-.968 37.44 37.44 0 0 1-.016-1.128V80.96h1.168v7.864c0 .363.003.667.008.912.011.24.067.453.168.64.192.357.496.57.912.64.422.07.942.053 1.56-.048V92zm-5.664-7.632V83.36h5.664v1.008h-5.664zM66.251 92v-4.408c0-.48-.046-.92-.136-1.32a3.043 3.043 0 0 0-.44-1.056 2.01 2.01 0 0 0-.776-.704c-.315-.165-.699-.248-1.152-.248-.416 0-.784.072-1.104.216a2.176 2.176 0 0 0-.8.624 2.797 2.797 0 0 0-.488.976 4.69 4.69 0 0 0-.168 1.312l-.832-.184c0-.885.154-1.63.464-2.232.309-.603.736-1.059 1.28-1.368.544-.31 1.168-.464 1.872-.464.517 0 .968.08 1.352.24.389.16.717.376.984.648.272.272.49.584.656.936.165.347.285.717.36 1.112.074.39.112.779.112 1.168V92H66.25zm-6.248 0V80.48h1.064v6.504h.12V92h-1.184z"/><defs><linearGradient id="a" x1="102.04" x2="-40.525" y1="0" y2="90.019" gradientUnits="userSpaceOnUse"><stop stop-color="#fff"/><stop offset="1" stop-color="#C8D3E3"/></linearGradient></defs></svg>