<svg xmlns="http://www.w3.org/2000/svg" width="147" height="39" fill="none"><path fill="#40464D" fill-rule="evenodd" d="M23.215.625c3.522 0 6.724 1.28 9.285 3.202L15.05 24.798.803 14.072C1.443 6.548 7.847.625 15.69.625" clip-rule="evenodd"/><path fill="#40464D" fill-rule="evenodd" d="M15.69 38.405C6.857 38.405.644 31.047.644 22.557l12.967 9.605c1.44 1.12 3.521.8 4.642-.48L36.822 9.27c2.168 4.335 1.601 9.23 1.601 13.927a15.03 15.03 0 0 1-15.048 15.048" clip-rule="evenodd"/><g clip-path="url(#a)"><path fill="#40464D" d="M67.229 20.232c0 1.8-.365 3.397-1.095 4.79-.73 1.379-1.743 2.457-3.04 3.235s-2.796 1.168-4.499 1.168c-1.686 0-3.177-.39-4.474-1.168-1.297-.778-2.31-1.856-3.04-3.234-.714-1.378-1.07-2.967-1.07-4.767 0-1.815.365-3.412 1.094-4.79.73-1.395 1.735-2.48 3.016-3.26 1.297-.777 2.796-1.166 4.499-1.166 1.702 0 3.194.389 4.474 1.167 1.297.778 2.31 1.856 3.04 3.234s1.095 2.975 1.095 4.791zm-3.26 0c0-1.264-.218-2.359-.656-3.283-.438-.924-1.054-1.637-1.848-2.14-.794-.519-1.743-.778-2.845-.778-1.087 0-2.035.26-2.846.778-.794.503-1.41 1.216-1.848 2.14-.438.924-.657 2.018-.657 3.283 0 1.265.22 2.367.657 3.308.438.924 1.054 1.637 1.848 2.14.811.502 1.76.753 2.846.753 1.102 0 2.05-.25 2.845-.753.794-.52 1.41-1.24 1.848-2.165.438-.94.657-2.035.657-3.283zm5.743 14.47V17.119h2.748l.195 1.824c.357-.697.908-1.232 1.654-1.605a5.23 5.23 0 0 1 2.456-.584c1.15 0 2.14.26 2.967.779.843.518 1.5 1.24 1.97 2.164.47.924.705 2.019.705 3.283 0 1.248-.22 2.36-.657 3.332-.438.973-1.078 1.743-1.921 2.31-.827.551-1.84.827-3.04.827-.892 0-1.71-.17-2.456-.51-.73-.341-1.28-.811-1.654-1.411v7.174h-2.967zm2.992-11.576c0 .713.137 1.346.413 1.897a3.27 3.27 0 0 0 1.167 1.313c.52.308 1.119.462 1.8.462.697 0 1.297-.154 1.8-.462a3.101 3.101 0 0 0 1.142-1.313c.26-.551.39-1.184.39-1.897 0-.713-.13-1.346-.39-1.897a2.951 2.951 0 0 0-1.142-1.289c-.503-.324-1.103-.486-1.8-.486-.681 0-1.28.154-1.8.462a3.102 3.102 0 0 0-1.167 1.289c-.276.551-.413 1.192-.413 1.921zm10.755-6.007h7.587v2.48H83.46v-2.48zm5.277 12.014h-2.967V13.374h2.967v15.759zm4.179 0V17.119h2.967v12.014h-2.967zm1.46-14.421a1.8 1.8 0 0 1-1.29-.511 1.8 1.8 0 0 1-.51-1.289c0-.503.17-.924.51-1.264a1.8 1.8 0 0 1 1.29-.511c.502 0 .923.17 1.264.51.356.341.535.762.535 1.265 0 .503-.179.932-.535 1.289-.34.34-.762.51-1.265.51zm7.539 14.42h-2.967V17.12h2.724l.365 2.14-.341-.291c.243-.584.689-1.095 1.338-1.533.648-.453 1.459-.68 2.432-.68 1.054 0 1.913.275 2.578.826.68.552 1.151 1.281 1.41 2.189h-.486a3.497 3.497 0 0 1 1.361-2.189c.746-.55 1.646-.826 2.7-.826 1.459 0 2.578.413 3.356 1.24.778.81 1.167 1.905 1.167 3.283v7.855h-2.942v-7.077c0-.86-.219-1.508-.657-1.946-.422-.453-.989-.68-1.702-.68-.454 0-.876.105-1.265.316-.373.21-.673.527-.9.948-.227.422-.34.965-.34 1.63v6.809h-2.967v-7.101c0-.843-.211-1.484-.632-1.922-.422-.437-.981-.656-1.678-.656-.471 0-.9.105-1.289.316-.389.195-.697.51-.924.948-.227.422-.341.957-.341 1.605v6.81zm22.125.317c-1.265 0-2.27-.34-3.016-1.021-.729-.698-1.094-1.605-1.094-2.724 0-1.103.381-1.978 1.143-2.627.778-.664 1.88-1.053 3.307-1.167l3.599-.292v-.267c0-.552-.105-.99-.316-1.313a1.635 1.635 0 0 0-.851-.73c-.373-.162-.811-.243-1.313-.243-.876 0-1.549.178-2.019.535-.47.34-.705.827-.705 1.459h-2.529c0-.876.219-1.63.657-2.262.453-.648 1.086-1.15 1.896-1.508.827-.356 1.776-.535 2.846-.535 1.086 0 2.018.195 2.796.584a3.97 3.97 0 0 1 1.8 1.703c.421.745.632 1.677.632 2.796v7.296h-2.602l-.219-1.775c-.259.616-.762 1.118-1.508 1.507-.729.39-1.564.584-2.504.584zm.948-2.237c.924 0 1.654-.26 2.189-.779.551-.518.827-1.24.827-2.164v-.632l-2.505.194c-.924.081-1.581.276-1.97.584a1.387 1.387 0 0 0-.584 1.167c0 .535.179.94.535 1.216.357.276.86.414 1.508.414zm11.791 1.92h-2.942V11.04h2.942v18.093z"/></g><defs><clipPath id="a"><path fill="#fff" d="M49.822.625h96.516v37.998H49.822z"/></clipPath></defs></svg>