<svg xmlns="http://www.w3.org/2000/svg" width="32" height="32" fill="none"><path fill="#1065E3" d="M29.333 6.467V22.32c0 1.293-1.053 2.48-2.346 2.64l-.414.053c-2.186.294-5.266 1.2-7.746 2.24-.867.36-1.827-.293-1.827-1.24V7.467c0-.494.28-.947.72-1.187 2.44-1.32 6.133-2.493 8.64-2.707h.08a2.89 2.89 0 0 1 2.893 2.894zM14.28 6.28c-2.44-1.32-6.133-2.493-8.64-2.707h-.093a2.89 2.89 0 0 0-2.894 2.894V22.32c0 1.293 1.054 2.48 2.347 2.64l.413.053c2.187.294 5.267 1.2 7.747 2.24.867.36 1.827-.293 1.827-1.24V7.467c0-.507-.267-.947-.707-1.187zm-7.613 4.04h3a1 1 0 1 1 0 2h-3c-.547 0-1-.44-1-1 0-.547.453-1 1-1zm4 6h-4c-.547 0-1-.44-1-1 0-.547.453-1 1-1h4a1 1 0 1 1 0 2z"/></svg>