<svg xmlns="http://www.w3.org/2000/svg" width="32" height="32" fill="none"><path fill="#1065E3" d="M10.333 4.667v-2c0-.547-.453-1-1-1-.546 0-1 .453-1 1v2.08c.334-.04.64-.08 1-.08h1zM21 4.747v-2.08c0-.547-.453-1-1-1-.547 0-1 .453-1 1v2h1c.36 0 .667.04 1 .08zm7.387 15.213a5.988 5.988 0 0 0-7.467.027 5.95 5.95 0 0 0-2.253 4.68c0 1.12.32 2.2.866 3.08a6.086 6.086 0 0 0 1.627 1.773 5.904 5.904 0 0 0 3.507 1.147 5.91 5.91 0 0 0 3.946-1.494A5.315 5.315 0 0 0 29.8 27.76a5.988 5.988 0 0 0-1.413-7.8zm-3.72 7.56a2.857 2.857 0 0 0-2.854-2.853 2.857 2.857 0 0 0 2.854-2.854 2.857 2.857 0 0 0 2.853 2.854 2.857 2.857 0 0 0-2.853 2.853z"/><path fill="#1065E3" d="M21 4.747v1.92c0 .546-.453 1-1 1-.547 0-1-.454-1-1v-2h-8.667v2c0 .546-.453 1-1 1-.546 0-1-.454-1-1v-1.92c-3.933.36-5.666 2.893-5.666 6.586v11.334c0 4 2 6.666 6.666 6.666h5.507c1.013 0 1.693-1.133 1.44-2.12A8.834 8.834 0 0 1 16 25c0-2.773 1.24-5.333 3.387-7.027A8.94 8.94 0 0 1 25 16h.053c.84 0 1.614-.613 1.614-1.453v-3.214c0-3.693-1.734-6.226-5.667-6.586zm-9 17.586H9.333c-.546 0-1-.453-1-1 0-.546.454-1 1-1H12c.547 0 1 .454 1 1 0 .547-.453 1-1 1zm4-6.666H9.333c-.546 0-1-.454-1-1 0-.547.454-1 1-1H16c.547 0 1 .453 1 1 0 .546-.453 1-1 1z"/></svg>