<svg xmlns="http://www.w3.org/2000/svg" width="295" height="100" fill="none"><rect width="293.966" height="100" x=".583" fill="#DBF4FF" rx="20"/><path fill="#170F49" d="M104.892 61.415V37.297h15.573v3.549h-11.163v6.753h9.027v3.48h-9.027v10.336h-4.41zm21.25-19.742c-.804 0-1.47-.241-1.998-.724-.505-.482-.758-1.09-.758-1.826 0-.735.253-1.332.758-1.791.528-.483 1.194-.724 1.998-.724s1.459.241 1.964.724c.528.46.793 1.056.793 1.791 0 .735-.265 1.344-.793 1.826-.505.483-1.16.724-1.964.724zm-2.205 19.742v-17.09h4.41v17.09h-4.41zm9.013 0v-17.09h3.894l.344 2.895a6.053 6.053 0 0 1 2.274-2.412c1.011-.597 2.194-.896 3.549-.896 2.113 0 3.755.666 4.927 1.999 1.171 1.332 1.757 3.284 1.757 5.857v9.647h-4.41v-9.234c0-1.47-.299-2.595-.896-3.376-.597-.781-1.527-1.172-2.791-1.172-1.24 0-2.262.437-3.066 1.31-.781.873-1.171 2.09-1.171 3.652v8.82h-4.411zm26.854.413c-1.47 0-2.676-.23-3.618-.689-.942-.482-1.642-1.114-2.102-1.895a5.006 5.006 0 0 1-.689-2.584c0-1.584.621-2.87 1.861-3.858s3.101-1.482 5.581-1.482h4.342v-.413c0-1.172-.333-2.033-1-2.584-.666-.552-1.493-.827-2.48-.827-.896 0-1.677.218-2.343.654-.666.414-1.08 1.034-1.24 1.86h-4.307c.115-1.24.528-2.32 1.24-3.238.735-.919 1.677-1.62 2.825-2.102 1.149-.505 2.435-.758 3.859-.758 2.435 0 4.353.61 5.754 1.827 1.401 1.217 2.102 2.94 2.102 5.168v10.508h-3.756l-.413-2.756a6.33 6.33 0 0 1-2.136 2.274c-.896.597-2.056.895-3.48.895zm.999-3.445c1.263 0 2.239-.413 2.929-1.24.712-.827 1.159-1.85 1.343-3.067h-3.755c-1.172 0-2.01.219-2.515.655-.506.413-.758.93-.758 1.55 0 .666.252 1.183.758 1.55.505.368 1.171.552 1.998.552zm12.994 3.032v-17.09h3.894l.344 2.895a6.04 6.04 0 0 1 2.274-2.412c1.011-.597 2.194-.896 3.549-.896 2.113 0 3.755.666 4.927 1.999 1.171 1.332 1.757 3.284 1.757 5.857v9.647h-4.41v-9.234c0-1.47-.299-2.595-.896-3.376-.597-.781-1.528-1.172-2.791-1.172-1.24 0-2.262.437-3.066 1.31-.781.873-1.172 2.09-1.172 3.652v8.82h-4.41zm29.334.413c-1.745 0-3.284-.379-4.617-1.137a8.4 8.4 0 0 1-3.169-3.17c-.758-1.354-1.137-2.905-1.137-4.65 0-1.746.379-3.297 1.137-4.652a8.4 8.4 0 0 1 3.169-3.17c1.333-.758 2.872-1.137 4.617-1.137 2.182 0 4.02.575 5.513 1.723 1.493 1.126 2.446 2.688 2.86 4.686h-4.652c-.229-.827-.689-1.47-1.378-1.93-.666-.482-1.458-.723-2.377-.723-1.218 0-2.251.46-3.101 1.378-.85.919-1.275 2.194-1.275 3.825 0 1.63.425 2.905 1.275 3.824.85.919 1.883 1.378 3.101 1.378.919 0 1.711-.23 2.377-.69.689-.459 1.149-1.113 1.378-1.963h4.652c-.414 1.93-1.367 3.48-2.86 4.651-1.493 1.172-3.331 1.758-5.513 1.758zm20.59 0c-1.722 0-3.25-.367-4.582-1.102a7.981 7.981 0 0 1-3.135-3.1c-.758-1.333-1.137-2.872-1.137-4.618 0-1.768.367-3.342 1.102-4.72.758-1.378 1.792-2.446 3.101-3.204 1.332-.781 2.894-1.172 4.686-1.172 1.677 0 3.158.368 4.444 1.103a7.759 7.759 0 0 1 2.998 3.032c.735 1.263 1.102 2.676 1.102 4.238 0 .252-.011.517-.034.792 0 .276-.012.563-.035.861h-12.989c.092 1.333.552 2.378 1.378 3.136.85.758 1.872 1.137 3.067 1.137.896 0 1.642-.195 2.239-.586a3.81 3.81 0 0 0 1.379-1.585h4.479a8.163 8.163 0 0 1-1.62 2.963c-.735.873-1.654 1.562-2.756 2.068-1.08.505-2.309.758-3.687.758zm.035-14.332c-1.08 0-2.033.31-2.86.93-.827.597-1.355 1.516-1.585 2.756h8.51c-.069-1.125-.482-2.021-1.24-2.687-.758-.666-1.7-1-2.825-1zm11.943 5.788v-3.687h6.478v-5.96h3.755v5.96h6.443v3.687h-6.443v5.96h-3.755v-5.96h-6.478z"/><rect width="45.646" height="39.596" x="40.583" y="30.202" fill="#253B80" stroke="#253B80" stroke-linecap="round" stroke-linejoin="round" stroke-miterlimit="10" stroke-width="4.533" rx="10.88"/><path fill="#4CBFFF" d="M88.492 42.746h-18.36a7.253 7.253 0 1 0 0 14.507h18.36V42.746z"/><circle cx="69.889" cy="50" r="3.627" fill="#fff"/></svg>